<?xml version="1.0" encoding="UTF-8"?>
<svg version="1.1" xmlns="http://www.w3.org/2000/svg" width="480" height="375">
<path d="M0 0 C17.80297698 -0.04681568 35.60593788 -0.0820356 53.4089632 -0.10362434 C61.67606482 -0.11391684 69.94312808 -0.12793824 78.21020508 -0.15087891 C85.41962991 -0.17087504 92.62902695 -0.18373115 99.83847874 -0.18817699 C103.65233152 -0.19077387 107.46610483 -0.19683499 111.27993202 -0.21146011 C114.87745607 -0.2251426 118.47486871 -0.22920134 122.07241631 -0.22621536 C124.00619816 -0.22701877 125.93996819 -0.23772414 127.87371826 -0.24884033 C148.820872 -0.19988016 166.85480356 6.75360019 183 20 C183.5671875 20.43441406 184.134375 20.86882812 184.71875 21.31640625 C202.0145566 35.11374288 213.0912583 57.05260625 215.625 78.75 C216.56725709 89.69731421 216.11581556 100.22005365 214 111 C213.72542969 112.47919922 213.72542969 112.47919922 213.4453125 113.98828125 C211.65251027 122.34362499 208.14984106 129.59438932 204 137 C203.44828125 137.98742187 202.8965625 138.97484375 202.328125 139.9921875 C198.30727266 146.55720748 193.44114632 151.95976843 188.0625 157.4375 C187.40644775 158.11216309 186.75039551 158.78682617 186.07446289 159.48193359 C181.46798621 164.02981239 176.7539792 167.08414611 171 170 C170.07832031 170.53625 169.15664063 171.0725 168.20703125 171.625 C152.92067327 180.40281078 139.14171475 182.15919116 121.90625 182.09765625 C120.52441447 182.0961834 119.14257839 182.09516481 117.76074219 182.09460449 C112.67381954 182.08939133 107.58690889 182.0754301 102.5 182.0625 C91.115 182.041875 79.73 182.02125 68 182 C68 220.28 68 258.56 68 298 C53.48984795 298 42.20887944 295.76359513 30 288 C29.33871094 287.60296875 28.67742187 287.2059375 27.99609375 286.796875 C26.3125 285.75 26.3125 285.75 24 284 C24 283.34 24 282.68 24 282 C23.12794922 281.62681641 23.12794922 281.62681641 22.23828125 281.24609375 C12.53167105 275.84223921 5.30139795 262.55591939 2.15997314 252.24203491 C-0.85654791 239.39334109 -0.40613444 226.39946961 -0.33711338 213.27088594 C-0.32190006 209.81075701 -0.32324759 206.35062918 -0.32244873 202.89047241 C-0.31878041 197.09945268 -0.3039228 191.30855323 -0.28125 185.51757812 C-0.25218238 178.07799623 -0.24200498 170.63850986 -0.2375679 163.19887733 C-0.23359767 156.78928567 -0.22111172 150.37971484 -0.20722103 143.97013807 C-0.20312157 141.91233969 -0.2001967 139.85454204 -0.19742584 137.79674149 C-0.19164461 133.98116313 -0.17698211 130.16564811 -0.16113281 126.35009766 C-0.16001495 125.20841629 -0.15889709 124.06673492 -0.15774536 122.89045715 C-0.15203522 121.85899063 -0.14632507 120.82752411 -0.14044189 119.76480103 C-0.13746723 118.86341211 -0.13449257 117.9620232 -0.13142776 117.03331947 C0 115 0 115 1 114 C2.58458076 113.90838724 4.17326805 113.88700047 5.76048279 113.89320374 C6.79076096 113.89471939 7.82103912 113.89623505 8.88253784 113.89779663 C10.02272369 113.904534 11.16290955 113.91127136 12.33764648 113.91821289 C13.53117233 113.92127945 14.72469818 113.92434601 15.95439148 113.92750549 C18.55774999 113.93468222 21.16103634 113.94364321 23.76437187 113.95540047 C27.88799676 113.97366994 32.01161328 113.98328774 36.13526917 113.99131775 C47.86422371 114.01548123 59.59312811 114.05115902 71.32202148 114.09594727 C77.79457401 114.12058682 84.26710629 114.13789603 90.73969895 114.14750665 C94.16283981 114.15295319 97.58587369 114.16227359 101.00897026 114.18089485 C104.83861977 114.20019557 108.66811099 114.20701961 112.49780273 114.21118164 C114.18075439 114.22432404 114.18075439 114.22432404 115.89770508 114.23773193 C124.56900294 114.22701933 133.48644651 114.12080102 140.53125 108.48828125 C145.4195308 103.53499672 146.79970116 98.00448262 147.25 91.25 C147.20484009 86.490146 145.67656928 82.40425194 144 78 C143.67 77.01 143.34 76.02 143 75 C142.34 75 141.68 75 141 75 C141 74.34 141 73.68 141 73 C140.29875 72.731875 139.5975 72.46375 138.875 72.1875 C136 71 136 71 133.27731323 69.44784546 C129.47885755 67.76977064 126.82935316 67.63400884 122.68798828 67.64697266 C121.62794838 67.64373238 121.62794838 67.64373238 120.54649353 67.64042664 C119.01931835 67.63735177 117.49211818 67.64090964 115.96496964 67.65044022 C113.53186917 67.66428119 111.09957544 67.65767769 108.66647339 67.64559937 C101.75122722 67.61480429 94.83617015 67.61931849 87.92089844 67.63964844 C83.67972241 67.6506952 79.43914825 67.63709771 75.19805527 67.60975266 C73.59803504 67.60438253 71.9979519 67.60819177 70.39798355 67.62215042 C56.45626309 67.74224116 43.18008397 65.64543203 31.4375 57.5625 C30.58212646 56.98000488 30.58212646 56.98000488 29.70947266 56.38574219 C23.76000061 52.274083 18.16593001 47.99893921 14 42 C14 41.34 14 40.68 14 40 C13.34 40 12.68 40 12 40 C4.73869764 30.07383544 1.0846906 19.27984375 0.3984375 7.08203125 C0.35807373 6.39677368 0.31770996 5.71151611 0.27612305 5.00549316 C0.17863624 3.33730477 0.08853659 1.66868735 0 0 Z " fill="#034B7F" transform="translate(132,71)"/>
<path d="M0 0 C1.29804565 -0.00315216 2.59609131 -0.00630432 3.93347168 -0.009552 C5.36124709 -0.00776222 6.78902219 -0.00571127 8.21679688 -0.00341797 C9.67028825 -0.00409105 11.12377952 -0.00506111 12.57727051 -0.00631714 C15.62720814 -0.00779393 18.67711654 -0.00564017 21.72705078 -0.00097656 C25.64485247 0.00472073 29.56258566 0.00144162 33.48038483 -0.00454903 C36.48285441 -0.00815515 39.48530764 -0.00701582 42.48777771 -0.00442123 C43.93273425 -0.00375211 45.37769226 -0.00457989 46.82264709 -0.00690079 C48.83879571 -0.00942812 50.8549495 -0.00489598 52.87109375 0 C54.59531555 0.00119339 54.59531555 0.00119339 56.35437012 0.00241089 C58.93554688 0.12939453 58.93554688 0.12939453 59.93554688 1.12939453 C60.05911118 2.60016604 60.11350083 4.07679109 60.14086914 5.55249023 C60.17077942 7.00934738 60.17077942 7.00934738 60.20129395 8.49563599 C60.21801147 9.58778412 60.234729 10.67993225 60.25195312 11.80517578 C60.28319275 13.56255569 60.28319275 13.56255569 60.31506348 15.35543823 C60.37102801 18.67730644 60.42134561 21.99915676 60.46797562 25.32116318 C60.4980075 27.43911743 60.52996139 29.55703595 60.56222534 31.67495728 C61.32112228 82.48608401 61.02204971 133.31417856 60.93554688 184.12939453 C59.18949156 184.14743912 57.44338175 184.16025619 55.69726562 184.17089844 C54.23873169 184.18245468 54.23873169 184.18245468 52.75073242 184.19424438 C42.01581337 183.94695769 31.87792744 179.8158314 22.93554688 174.12939453 C22.27425781 173.73236328 21.61296875 173.33533203 20.93164062 172.92626953 C19.24804687 171.87939453 19.24804687 171.87939453 16.93554688 170.12939453 C16.93554688 169.46939453 16.93554688 168.80939453 16.93554688 168.12939453 C16.35417969 167.88060547 15.7728125 167.63181641 15.17382812 167.37548828 C5.46721793 161.97163374 -1.76305517 148.68531392 -4.90447998 138.37142944 C-7.92100104 125.52273562 -7.47058757 112.52886414 -7.40156651 99.40028048 C-7.38635318 95.94015154 -7.38770072 92.48002372 -7.38690186 89.01986694 C-7.38323353 83.22884721 -7.36837592 77.43794776 -7.34570312 71.64697266 C-7.31663551 64.20739076 -7.3064581 56.76790439 -7.30202103 49.32827187 C-7.29805079 42.9186802 -7.28556484 36.50910937 -7.27167416 30.0995326 C-7.26757469 28.04173422 -7.26464982 25.98393657 -7.26187897 23.92613602 C-7.25609773 20.11055766 -7.24143524 16.29504264 -7.22558594 12.47949219 C-7.22446808 11.33781082 -7.22335022 10.19612946 -7.22219849 9.01985168 C-7.21648834 7.98838516 -7.2107782 6.95691864 -7.20489502 5.89419556 C-7.20192036 4.99280664 -7.19894569 4.09141773 -7.19588089 3.162714 C-6.91535051 -1.1773726 -3.64005372 0.0025194 0 0 Z " fill="#59F0FE" transform="translate(139.064453125,184.87060546875)"/>
<path d="M0 0 C1.15249741 0.00222061 2.30499481 0.00444122 3.49241638 0.00672913 C5.4443264 0.00684242 5.4443264 0.00684242 7.43566895 0.00695801 C8.86661313 0.01206543 10.29755694 0.01728144 11.72850037 0.02259827 C13.18438672 0.02446249 14.64027369 0.02588637 16.09616089 0.02688599 C19.93488791 0.03071086 23.77357731 0.04054088 27.61228943 0.05158997 C31.52667227 0.06180474 35.44106117 0.06638375 39.35545349 0.07142639 C47.04101755 0.08216318 54.72655057 0.09923923 62.41209412 0.12025452 C62.41209412 0.45025452 62.41209412 0.78025452 62.41209412 1.12025452 C58.35551051 1.88206964 54.53192858 2.24278691 50.40672302 2.23377991 C49.2459726 2.23370438 48.08522217 2.23362885 46.88929749 2.23355103 C45.651586 2.22838974 44.41387451 2.22322845 43.13865662 2.21791077 C41.8597757 2.21649582 40.58089478 2.21508087 39.26325989 2.21362305 C35.87998076 2.20898474 32.49677025 2.20001533 29.11351013 2.18891907 C25.65445038 2.17864967 22.1953835 2.17411363 18.73631287 2.16908264 C11.96155446 2.15807061 5.18682824 2.14134516 -1.58790588 2.12025452 C-1.50397573 18.44507548 -1.40883125 34.76978671 -1.3003788 51.09446144 C-1.25028187 58.67449048 -1.20383865 66.25450887 -1.16603088 73.83460999 C-1.13306386 80.44232223 -1.09320668 87.04995108 -1.04511583 93.6575712 C-1.01989758 97.15543966 -0.9981026 100.65325312 -0.98456192 104.1511879 C-0.96930747 108.05845754 -0.9386686 111.9655251 -0.90675354 115.87269592 C-0.90459335 117.02931732 -0.90243317 118.18593872 -0.90020752 119.37760925 C-0.84458305 124.70129989 -0.67448515 129.13678304 1.41209412 134.12025452 C1.82933502 136.23736576 2.20541983 138.36306265 2.53709412 140.49525452 C2.70467224 141.55486389 2.87225037 142.61447327 3.04490662 143.70619202 C3.16607849 144.50283264 3.28725037 145.29947327 3.41209412 146.12025452 C4.40209412 146.45025452 5.39209412 146.78025452 6.41209412 147.12025452 C7.61521912 148.86244202 7.61521912 148.86244202 8.66209412 150.99525452 C9.19576599 152.04326233 9.19576599 152.04326233 9.74021912 153.11244202 C10.41209412 155.12025452 10.41209412 155.12025452 9.41209412 158.12025452 C8.11463621 156.22837984 6.82435652 154.33158108 5.53709412 152.43275452 C4.81779724 151.37701233 4.09850037 150.32127014 3.35740662 149.23353577 C-5.77883142 134.61188574 -4.01168801 115.87651273 -3.92501926 99.39114046 C-3.90980594 95.93101153 -3.91115348 92.4708837 -3.91035461 89.01072693 C-3.90668629 83.21970719 -3.89182868 77.42880775 -3.86915588 71.63783264 C-3.84008827 64.19825074 -3.82991086 56.75876437 -3.82547379 49.31913185 C-3.82150355 42.90954019 -3.8090176 36.49996935 -3.79512691 30.09039259 C-3.79102745 28.03259421 -3.78810258 25.97479656 -3.78533173 23.916996 C-3.77955049 20.10141765 -3.764888 16.28590263 -3.7490387 12.47035217 C-3.74792084 11.32867081 -3.74680298 10.18698944 -3.74565125 9.01071167 C-3.7399411 7.97924515 -3.73423096 6.94777863 -3.72834778 5.88505554 C-3.72537312 4.98366663 -3.72239845 4.08227772 -3.71933365 3.15357399 C-3.51985967 0.06751126 -3.11409223 0.14470528 0 0 Z " fill="#9DEDF5" transform="translate(135.58790588378906,184.87974548339844)"/>
<path d="M0 0 C0.66 0 1.32 0 2 0 C2 38.28 2 76.56 2 116 C-10.76090909 116 -10.76090909 116 -17.4375 114.1875 C-18.11748047 114.02185547 -18.79746094 113.85621094 -19.49804688 113.68554688 C-23.25759347 112.71166628 -26.08967143 111.59771016 -29 109 C-17.48640332 109.55649051 -17.48640332 109.55649051 -12.8125 111.5 C-8.27421299 113.47716034 -8.27421299 113.47716034 0 114 C0 76.38 0 38.76 0 0 Z " fill="#8DECF5" transform="translate(198,253)"/>
<path d="M0 0 C6.05976422 6.05976422 5.05511479 20.92825868 5.125 29 C5.08745907 34.71873534 4.73168804 40.32941768 4 46 C3.67 46 3.34 46 3 46 C2.67 35.77 2.34 25.54 2 15 C1.67 15 1.34 15 1 15 C-0.32286246 10.03926578 -0.08893197 5.08888488 0 0 Z " fill="#577F9C" transform="translate(343,133)"/>
<path d="M0 0 C0.99 0 1.98 0 3 0 C3.2475 0.639375 3.495 1.27875 3.75 1.9375 C4.79688294 4.19895007 4.79688294 4.19895007 7.0625 4.5625 C8.0215625 4.7790625 8.0215625 4.7790625 9 5 C9.33 5.99 9.66 6.98 10 8 C10.66 8.33 11.32 8.66 12 9 C12 9.66 12 10.32 12 11 C12.886875 11.2475 13.77375 11.495 14.6875 11.75 C18.13156256 13.04964625 20.33024803 14.48729227 23 17 C23 17.66 23 18.32 23 19 C18.33138019 17.39516194 13.90741833 15.02509806 10 12 C10 11.34 10 10.68 10 10 C9.40703125 9.74347656 8.8140625 9.48695313 8.203125 9.22265625 C5.80550123 7.89206008 4.48912672 6.54114065 2.75 4.4375 C1.96882812 3.50744141 1.96882812 3.50744141 1.171875 2.55859375 C0 1 0 1 0 0 Z " fill="#8DEEF4" transform="translate(146,343)"/>
<path d="M0 0 C6.42975391 0.31077144 12.10764992 0.7392226 18.04296875 3.30078125 C21.57602027 4.56308908 25.27777968 4.75012873 29 5 C24.14908142 8.23394572 19.12209689 6.4045635 13.66015625 5.36328125 C3.75885364 3.25827991 3.75885364 3.25827991 0 0 Z " fill="#8AECF4" transform="translate(169,362)"/>
<path d="M0 0 C7.20759389 -0.61081304 7.20759389 -0.61081304 11 2.3125 C13 5 13 5 13 8 C12.34 8 11.68 8 11 8 C11 7.34 11 6.68 11 6 C9.948125 5.5978125 9.948125 5.5978125 8.875 5.1875 C5.8350176 3.9318551 2.9272226 2.49764877 0 1 C0 0.67 0 0.34 0 0 Z " fill="#497693" transform="translate(262,138)"/>
<path d="M0 0 C0.66 1.32 1.32 2.64 2 4 C-5 11 -5 11 -7.625 11.125 C-8.40875 11.08375 -9.1925 11.0425 -10 11 C-7.78077954 8.78077954 -5.55774545 6.56803044 -3.3125 4.375 C-0.98708851 2.22713676 -0.98708851 2.22713676 0 0 Z " fill="#3B6A88" transform="translate(277,173)"/>
<path d="M0 0 C0.66 0 1.32 0 2 0 C2 0.66 2 1.32 2 2 C2.66 2.33 3.32 2.66 4 3 C1.82575883 5.50037734 0.26954202 6.43628586 -3 7 C-3.33 6.01 -3.66 5.02 -4 4 C-3.34 4 -2.68 4 -2 4 C-1.34 2.68 -0.68 1.36 0 0 Z " fill="#37688F" transform="translate(311,230)"/>
<path d="M0 0 C3.63 1.98 7.26 3.96 11 6 C10.01 6.66 9.02 7.32 8 8 C2.62890625 5.265625 2.62890625 5.265625 1 4 C0.67 2.68 0.34 1.36 0 0 Z " fill="#537E9B" transform="translate(296,79)"/>
<path d="M0 0 C2.475 0.99 2.475 0.99 5 2 C5 5.3 5 8.6 5 12 C4.67 12 4.34 12 4 12 C2.66666667 8 1.33333333 4 0 0 Z " fill="#6186A4" transform="translate(275,146)"/>
<path d="M0 0 C-0.33 0.66 -0.66 1.32 -1 2 C-2.32 2 -3.64 2 -5 2 C-4.67 2.99 -4.34 3.98 -4 5 C-5.32 4.67 -6.64 4.34 -8 4 C-8 3.01 -8 2.02 -8 1 C-5.29120665 -0.35439668 -2.99066732 -0.06501451 0 0 Z " fill="#044575" transform="translate(279,73)"/>
<path d="M0 0 C1.98 0.495 1.98 0.495 4 1 C3.34 2.65 2.68 4.3 2 6 C1.67 5.01 1.34 4.02 1 3 C0.34 3 -0.32 3 -1 3 C-0.67 2.01 -0.34 1.02 0 0 Z " fill="#24628B" transform="translate(333,203)"/>
<path d="M0 0 C2.46800047 1.15173355 4.04783565 2.04783565 6 4 C5.67 4.99 5.34 5.98 5 7 C2.5 5.1875 2.5 5.1875 0 3 C0 2.01 0 1.02 0 0 Z " fill="#3B6C8F" transform="translate(152,117)"/>
</svg>
